<?xml version="1.0" encoding="UTF-8" standalone="no"?>
<!DOCTYPE svg PUBLIC "-//W3C//DTD SVG 1.1//EN"
 "http://www.w3.org/Graphics/SVG/1.1/DTD/svg11.dtd">
<!-- Generated by graphviz version 2.26.3 (20100126.1600)
 -->
<!-- Title: controllers_diagram Pages: 1 -->
<svg width="921pt" height="827pt"
 viewBox="0.00 0.00 921.00 827.00" xmlns="http://www.w3.org/2000/svg" xmlns:xlink="http://www.w3.org/1999/xlink">
<g id="graph1" class="graph" transform="scale(1 1) rotate(0) translate(4 823)">
<title>controllers_diagram</title>
<polygon fill="white" stroke="white" points="-4,5 -4,-823 918,-823 918,5 -4,5"/>
<!-- _diagram_info -->
<g id="node1" class="node"><title>_diagram_info</title>
<text text-anchor="start" x="555" y="-372.3" font-family="Times Roman,serif" font-size="13.00">Controllers diagram</text>
<text text-anchor="start" x="555" y="-355.3" font-family="Times Roman,serif" font-size="13.00">Date: Dec 02 2012 &#45; 21:25</text>
<text text-anchor="start" x="555" y="-338.3" font-family="Times Roman,serif" font-size="13.00">Migration version: 20121128063935</text>
<text text-anchor="start" x="555" y="-321.3" font-family="Times Roman,serif" font-size="13.00">Generated by RailRoady 1.1.0</text>
<text text-anchor="start" x="555" y="-304.3" font-family="Times Roman,serif" font-size="13.00">http://railroady.prestonlee.com</text>
</g>
<!-- ApplicationController -->
<g id="node2" class="node"><title>ApplicationController</title>
<polyline fill="none" stroke="black" points="231.06,-271.501 445.06,-271.501 "/>
<path fill="none" stroke="black" d="M445.06,-271.501C451.06,-271.501 457.06,-277.501 457.06,-283.501"/>
<polyline fill="none" stroke="black" points="457.06,-283.501 457.06,-415.501 "/>
<path fill="none" stroke="black" d="M457.06,-415.501C457.06,-421.501 451.06,-427.501 445.06,-427.501"/>
<polyline fill="none" stroke="black" points="445.06,-427.501 231.06,-427.501 "/>
<path fill="none" stroke="black" d="M231.06,-427.501C225.06,-427.501 219.06,-421.501 219.06,-415.501"/>
<polyline fill="none" stroke="black" points="219.06,-415.501 219.06,-283.501 "/>
<path fill="none" stroke="black" d="M219.06,-283.501C219.06,-277.501 225.06,-271.501 231.06,-271.501"/>
<text text-anchor="middle" x="338.06" y="-410.901" font-family="Times Roman,serif" font-size="14.00">ApplicationController</text>
<polyline fill="none" stroke="black" points="219.06,-401.501 457.06,-401.501 "/>
<text text-anchor="start" x="227.06" y="-384.901" font-family="Times Roman,serif" font-size="14.00">_one_time_conditions_valid_82?</text>
<text text-anchor="start" x="227.06" y="-366.901" font-family="Times Roman,serif" font-size="14.00">escape_javascript</text>
<polyline fill="none" stroke="black" points="219.06,-357.501 457.06,-357.501 "/>
<polyline fill="none" stroke="black" points="219.06,-333.501 457.06,-333.501 "/>
<text text-anchor="start" x="227.06" y="-316.901" font-family="Times Roman,serif" font-size="14.00">_layout</text>
<text text-anchor="start" x="227.06" y="-298.901" font-family="Times Roman,serif" font-size="14.00">after_sign_in_path_for</text>
<text text-anchor="start" x="227.06" y="-280.901" font-family="Times Roman,serif" font-size="14.00">after_sign_out_path_for</text>
</g>
<!-- TrackersController -->
<g id="node3" class="node"><title>TrackersController</title>
<polyline fill="none" stroke="black" points="425.721,-49.8297 648.721,-49.8297 "/>
<path fill="none" stroke="black" d="M648.721,-49.8297C654.721,-49.8297 660.721,-55.8297 660.721,-61.8297"/>
<polyline fill="none" stroke="black" points="660.721,-61.8297 660.721,-193.83 "/>
<path fill="none" stroke="black" d="M660.721,-193.83C660.721,-199.83 654.721,-205.83 648.721,-205.83"/>
<polyline fill="none" stroke="black" points="648.721,-205.83 425.721,-205.83 "/>
<path fill="none" stroke="black" d="M425.721,-205.83C419.721,-205.83 413.721,-199.83 413.721,-193.83"/>
<polyline fill="none" stroke="black" points="413.721,-193.83 413.721,-61.8297 "/>
<path fill="none" stroke="black" d="M413.721,-61.8297C413.721,-55.8297 419.721,-49.8297 425.721,-49.8297"/>
<text text-anchor="middle" x="537.221" y="-189.23" font-family="Times Roman,serif" font-size="14.00">TrackersController</text>
<polyline fill="none" stroke="black" points="413.721,-179.83 660.721,-179.83 "/>
<text text-anchor="start" x="421.721" y="-163.23" font-family="Times Roman,serif" font-size="14.00">_one_time_conditions_valid_198?</text>
<text text-anchor="start" x="421.721" y="-145.23" font-family="Times Roman,serif" font-size="14.00">pay_for_all</text>
<text text-anchor="start" x="421.721" y="-127.23" font-family="Times Roman,serif" font-size="14.00">set_gateway</text>
<text text-anchor="start" x="421.721" y="-109.23" font-family="Times Roman,serif" font-size="14.00">show</text>
<polyline fill="none" stroke="black" points="413.721,-99.8297 660.721,-99.8297 "/>
<polyline fill="none" stroke="black" points="413.721,-75.8297 660.721,-75.8297 "/>
<text text-anchor="start" x="421.721" y="-59.2297" font-family="Times Roman,serif" font-size="14.00">_layout</text>
</g>
<!-- ApplicationController&#45;&gt;TrackersController -->
<g id="edge2" class="edge"><title>ApplicationController&#45;&gt;TrackersController</title>
<path fill="none" stroke="black" d="M408.277,-271.348C427.316,-250.158 447.927,-227.217 466.967,-206.024"/>
</g>
<!-- ItemsController -->
<g id="node4" class="node"><title>ItemsController</title>
<polyline fill="none" stroke="black" points="21.8371,-1.5 244.837,-1.5 "/>
<path fill="none" stroke="black" d="M244.837,-1.5C250.837,-1.5 256.837,-7.5 256.837,-13.5"/>
<polyline fill="none" stroke="black" points="256.837,-13.5 256.837,-235.5 "/>
<path fill="none" stroke="black" d="M256.837,-235.5C256.837,-241.5 250.837,-247.5 244.837,-247.5"/>
<polyline fill="none" stroke="black" points="244.837,-247.5 21.8371,-247.5 "/>
<path fill="none" stroke="black" d="M21.8371,-247.5C15.8371,-247.5 9.83713,-241.5 9.83713,-235.5"/>
<polyline fill="none" stroke="black" points="9.83713,-235.5 9.83713,-13.5 "/>
<path fill="none" stroke="black" d="M9.83713,-13.5C9.83713,-7.5 15.8371,-1.5 21.8371,-1.5"/>
<text text-anchor="middle" x="133.337" y="-230.9" font-family="Times Roman,serif" font-size="14.00">ItemsController</text>
<polyline fill="none" stroke="black" points="9.83713,-221.5 256.837,-221.5 "/>
<text text-anchor="start" x="17.8371" y="-204.9" font-family="Times Roman,serif" font-size="14.00">_one_time_conditions_valid_190?</text>
<text text-anchor="start" x="17.8371" y="-186.9" font-family="Times Roman,serif" font-size="14.00">bid</text>
<text text-anchor="start" x="17.8371" y="-168.9" font-family="Times Roman,serif" font-size="14.00">category</text>
<text text-anchor="start" x="17.8371" y="-150.9" font-family="Times Roman,serif" font-size="14.00">create</text>
<text text-anchor="start" x="17.8371" y="-132.9" font-family="Times Roman,serif" font-size="14.00">index</text>
<text text-anchor="start" x="17.8371" y="-114.9" font-family="Times Roman,serif" font-size="14.00">new</text>
<text text-anchor="start" x="17.8371" y="-96.9" font-family="Times Roman,serif" font-size="14.00">search</text>
<text text-anchor="start" x="17.8371" y="-78.9" font-family="Times Roman,serif" font-size="14.00">show</text>
<text text-anchor="start" x="17.8371" y="-60.9" font-family="Times Roman,serif" font-size="14.00">update</text>
<polyline fill="none" stroke="black" points="9.83713,-51.5 256.837,-51.5 "/>
<polyline fill="none" stroke="black" points="9.83713,-27.5 256.837,-27.5 "/>
<text text-anchor="start" x="17.8371" y="-10.9" font-family="Times Roman,serif" font-size="14.00">_layout</text>
</g>
<!-- ApplicationController&#45;&gt;ItemsController -->
<g id="edge4" class="edge"><title>ApplicationController&#45;&gt;ItemsController</title>
<path fill="none" stroke="black" d="M267.033,-271.438C259.988,-263.696 252.724,-255.713 245.394,-247.656"/>
</g>
<!-- WishlistsController -->
<g id="node5" class="node"><title>WishlistsController</title>
<polyline fill="none" stroke="black" points="13,-427.658 136,-427.658 "/>
<path fill="none" stroke="black" d="M136,-427.658C142,-427.658 148,-433.658 148,-439.658"/>
<polyline fill="none" stroke="black" points="148,-439.658 148,-643.658 "/>
<path fill="none" stroke="black" d="M148,-643.658C148,-649.658 142,-655.658 136,-655.658"/>
<polyline fill="none" stroke="black" points="136,-655.658 13,-655.658 "/>
<path fill="none" stroke="black" d="M13,-655.658C7,-655.658 1,-649.658 1,-643.658"/>
<polyline fill="none" stroke="black" points="1,-643.658 1,-439.658 "/>
<path fill="none" stroke="black" d="M1,-439.658C1,-433.658 7,-427.658 13,-427.658"/>
<text text-anchor="middle" x="74.5" y="-639.058" font-family="Times Roman,serif" font-size="14.00">WishlistsController</text>
<polyline fill="none" stroke="black" points="1,-629.658 148,-629.658 "/>
<text text-anchor="start" x="9" y="-613.058" font-family="Times Roman,serif" font-size="14.00">create</text>
<text text-anchor="start" x="9" y="-595.058" font-family="Times Roman,serif" font-size="14.00">destroy</text>
<text text-anchor="start" x="9" y="-577.058" font-family="Times Roman,serif" font-size="14.00">edit</text>
<text text-anchor="start" x="9" y="-559.058" font-family="Times Roman,serif" font-size="14.00">empty_wishlist</text>
<text text-anchor="start" x="9" y="-541.058" font-family="Times Roman,serif" font-size="14.00">index</text>
<text text-anchor="start" x="9" y="-523.058" font-family="Times Roman,serif" font-size="14.00">new</text>
<text text-anchor="start" x="9" y="-505.058" font-family="Times Roman,serif" font-size="14.00">show</text>
<text text-anchor="start" x="9" y="-487.058" font-family="Times Roman,serif" font-size="14.00">update</text>
<polyline fill="none" stroke="black" points="1,-477.658 148,-477.658 "/>
<polyline fill="none" stroke="black" points="1,-453.658 148,-453.658 "/>
<text text-anchor="start" x="9" y="-437.058" font-family="Times Roman,serif" font-size="14.00">_layout</text>
</g>
<!-- ApplicationController&#45;&gt;WishlistsController -->
<g id="edge6" class="edge"><title>ApplicationController&#45;&gt;WishlistsController</title>
<path fill="none" stroke="black" d="M230.86,-427.659C203.07,-447.92 173.767,-469.284 148.135,-487.972"/>
</g>
<!-- StaticPagesController -->
<g id="node8" class="node"><title>StaticPagesController</title>
<polyline fill="none" stroke="black" points="513.355,-479.898 654.355,-479.898 "/>
<path fill="none" stroke="black" d="M654.355,-479.898C660.355,-479.898 666.355,-485.898 666.355,-491.898"/>
<polyline fill="none" stroke="black" points="666.355,-491.898 666.355,-623.898 "/>
<path fill="none" stroke="black" d="M666.355,-623.898C666.355,-629.898 660.355,-635.898 654.355,-635.898"/>
<polyline fill="none" stroke="black" points="654.355,-635.898 513.355,-635.898 "/>
<path fill="none" stroke="black" d="M513.355,-635.898C507.355,-635.898 501.355,-629.898 501.355,-623.898"/>
<polyline fill="none" stroke="black" points="501.355,-623.898 501.355,-491.898 "/>
<path fill="none" stroke="black" d="M501.355,-491.898C501.355,-485.898 507.355,-479.898 513.355,-479.898"/>
<text text-anchor="middle" x="583.855" y="-619.298" font-family="Times Roman,serif" font-size="14.00">StaticPagesController</text>
<polyline fill="none" stroke="black" points="501.355,-609.898 666.355,-609.898 "/>
<text text-anchor="start" x="509.355" y="-593.298" font-family="Times Roman,serif" font-size="14.00">about</text>
<text text-anchor="start" x="509.355" y="-575.298" font-family="Times Roman,serif" font-size="14.00">contact</text>
<text text-anchor="start" x="509.355" y="-557.298" font-family="Times Roman,serif" font-size="14.00">help</text>
<text text-anchor="start" x="509.355" y="-539.298" font-family="Times Roman,serif" font-size="14.00">home</text>
<polyline fill="none" stroke="black" points="501.355,-529.898 666.355,-529.898 "/>
<polyline fill="none" stroke="black" points="501.355,-505.898 666.355,-505.898 "/>
<text text-anchor="start" x="509.355" y="-489.298" font-family="Times Roman,serif" font-size="14.00">_layout</text>
</g>
<!-- ApplicationController&#45;&gt;StaticPagesController -->
<g id="edge8" class="edge"><title>ApplicationController&#45;&gt;StaticPagesController</title>
<path fill="none" stroke="black" d="M430.285,-427.693C453.578,-447.443 478.443,-468.524 501.23,-487.845"/>
</g>
<!-- LineItemsController -->
<g id="node9" class="node"><title>LineItemsController</title>
<polyline fill="none" stroke="black" points="251.989,-551.171 380.989,-551.171 "/>
<path fill="none" stroke="black" d="M380.989,-551.171C386.989,-551.171 392.989,-557.171 392.989,-563.171"/>
<polyline fill="none" stroke="black" points="392.989,-563.171 392.989,-749.171 "/>
<path fill="none" stroke="black" d="M392.989,-749.171C392.989,-755.171 386.989,-761.171 380.989,-761.171"/>
<polyline fill="none" stroke="black" points="380.989,-761.171 251.989,-761.171 "/>
<path fill="none" stroke="black" d="M251.989,-761.171C245.989,-761.171 239.989,-755.171 239.989,-749.171"/>
<polyline fill="none" stroke="black" points="239.989,-749.171 239.989,-563.171 "/>
<path fill="none" stroke="black" d="M239.989,-563.171C239.989,-557.171 245.989,-551.171 251.989,-551.171"/>
<text text-anchor="middle" x="316.489" y="-744.571" font-family="Times Roman,serif" font-size="14.00">LineItemsController</text>
<polyline fill="none" stroke="black" points="239.989,-735.171 392.989,-735.171 "/>
<text text-anchor="start" x="247.989" y="-718.571" font-family="Times Roman,serif" font-size="14.00">create</text>
<text text-anchor="start" x="247.989" y="-700.571" font-family="Times Roman,serif" font-size="14.00">destroy</text>
<text text-anchor="start" x="247.989" y="-682.571" font-family="Times Roman,serif" font-size="14.00">edit</text>
<text text-anchor="start" x="247.989" y="-664.571" font-family="Times Roman,serif" font-size="14.00">index</text>
<text text-anchor="start" x="247.989" y="-646.571" font-family="Times Roman,serif" font-size="14.00">new</text>
<text text-anchor="start" x="247.989" y="-628.571" font-family="Times Roman,serif" font-size="14.00">show</text>
<text text-anchor="start" x="247.989" y="-610.571" font-family="Times Roman,serif" font-size="14.00">update</text>
<polyline fill="none" stroke="black" points="239.989,-601.171 392.989,-601.171 "/>
<polyline fill="none" stroke="black" points="239.989,-577.171 392.989,-577.171 "/>
<text text-anchor="start" x="247.989" y="-560.571" font-family="Times Roman,serif" font-size="14.00">_layout</text>
</g>
<!-- ApplicationController&#45;&gt;LineItemsController -->
<g id="edge10" class="edge"><title>ApplicationController&#45;&gt;LineItemsController</title>
<path fill="none" stroke="black" d="M332.561,-427.681C329.927,-465.124 326.735,-510.512 323.891,-550.936"/>
</g>
<!-- MyOmniauthCallbacksController -->
<g id="node6" class="node"><title>MyOmniauthCallbacksController</title>
<polyline fill="none" stroke="black" points="685,-715.5 900,-715.5 "/>
<path fill="none" stroke="black" d="M900,-715.5C906,-715.5 912,-721.5 912,-727.5"/>
<polyline fill="none" stroke="black" points="912,-727.5 912,-805.5 "/>
<path fill="none" stroke="black" d="M912,-805.5C912,-811.5 906,-817.5 900,-817.5"/>
<polyline fill="none" stroke="black" points="900,-817.5 685,-817.5 "/>
<path fill="none" stroke="black" d="M685,-817.5C679,-817.5 673,-811.5 673,-805.5"/>
<polyline fill="none" stroke="black" points="673,-805.5 673,-727.5 "/>
<path fill="none" stroke="black" d="M673,-727.5C673,-721.5 679,-715.5 685,-715.5"/>
<text text-anchor="middle" x="792.5" y="-800.9" font-family="Times Roman,serif" font-size="14.00">MyOmniauthCallbacksController</text>
<polyline fill="none" stroke="black" points="673,-791.5 912,-791.5 "/>
<text text-anchor="start" x="681" y="-774.9" font-family="Times Roman,serif" font-size="14.00">google_oauth2</text>
<polyline fill="none" stroke="black" points="673,-765.5 912,-765.5 "/>
<polyline fill="none" stroke="black" points="673,-741.5 912,-741.5 "/>
<text text-anchor="start" x="681" y="-724.9" font-family="Times Roman,serif" font-size="14.00">_layout</text>
</g>
<!-- RegistrationsController -->
<g id="node7" class="node"><title>RegistrationsController</title>
<polyline fill="none" stroke="black" points="13,-715.5 165,-715.5 "/>
<path fill="none" stroke="black" d="M165,-715.5C171,-715.5 177,-721.5 177,-727.5"/>
<polyline fill="none" stroke="black" points="177,-727.5 177,-805.5 "/>
<path fill="none" stroke="black" d="M177,-805.5C177,-811.5 171,-817.5 165,-817.5"/>
<polyline fill="none" stroke="black" points="165,-817.5 13,-817.5 "/>
<path fill="none" stroke="black" d="M13,-817.5C7,-817.5 1,-811.5 1,-805.5"/>
<polyline fill="none" stroke="black" points="1,-805.5 1,-727.5 "/>
<path fill="none" stroke="black" d="M1,-727.5C1,-721.5 7,-715.5 13,-715.5"/>
<text text-anchor="middle" x="89" y="-800.9" font-family="Times Roman,serif" font-size="14.00">RegistrationsController</text>
<polyline fill="none" stroke="black" points="1,-791.5 177,-791.5 "/>
<text text-anchor="start" x="9" y="-774.9" font-family="Times Roman,serif" font-size="14.00">create</text>
<polyline fill="none" stroke="black" points="1,-765.5 177,-765.5 "/>
<polyline fill="none" stroke="black" points="1,-741.5 177,-741.5 "/>
<text text-anchor="start" x="9" y="-724.9" font-family="Times Roman,serif" font-size="14.00">_layout</text>
</g>
</g>
</svg>
