<?xml version="1.0" encoding="UTF-8" standalone="no"?>
<!DOCTYPE svg PUBLIC "-//W3C//DTD SVG 1.1//EN"
 "http://www.w3.org/Graphics/SVG/1.1/DTD/svg11.dtd">
<!-- Generated by graphviz version 2.26.3 (20100126.1600)
 -->
<!-- Title: models_diagram Pages: 1 -->
<svg width="423pt" height="346pt"
 viewBox="0.00 0.00 423.00 346.00" xmlns="http://www.w3.org/2000/svg" xmlns:xlink="http://www.w3.org/1999/xlink">
<g id="graph1" class="graph" transform="scale(1 1) rotate(0) translate(4 342)">
<title>models_diagram</title>
<polygon fill="white" stroke="white" points="-4,5 -4,-342 420,-342 420,5 -4,5"/>
<!-- _diagram_info -->
<g id="node1" class="node"><title>_diagram_info</title>
<text text-anchor="start" x="8" y="-321.8" font-family="Times Roman,serif" font-size="13.00">Models diagram</text>
<text text-anchor="start" x="8" y="-304.8" font-family="Times Roman,serif" font-size="13.00">Date: Dec 02 2012 &#45; 21:25</text>
<text text-anchor="start" x="8" y="-287.8" font-family="Times Roman,serif" font-size="13.00">Migration version: 20121128063935</text>
<text text-anchor="start" x="8" y="-270.8" font-family="Times Roman,serif" font-size="13.00">Generated by RailRoady 1.1.0</text>
<text text-anchor="start" x="8" y="-253.8" font-family="Times Roman,serif" font-size="13.00">http://railroady.prestonlee.com</text>
</g>
<!-- Bid -->
<g id="node2" class="node"><title>Bid</title>
<ellipse fill="none" stroke="black" cx="214" cy="-95" rx="27" ry="18.3848"/>
<text text-anchor="middle" x="214" y="-91.4" font-family="Times Roman,serif" font-size="14.00">Bid</text>
</g>
<!-- Item -->
<g id="node3" class="node"><title>Item</title>
<ellipse fill="none" stroke="black" cx="302" cy="-291" rx="33.9411" ry="18.3848"/>
<text text-anchor="middle" x="302" y="-287.4" font-family="Times Roman,serif" font-size="14.00">Item</text>
</g>
<!-- Item&#45;&gt;Bid -->
<g id="edge4" class="edge"><title>Item&#45;&gt;Bid</title>
<path fill="none" stroke="#eccd72" d="M287.4,-266.175C275.884,-246.038 259.844,-216.712 248,-190 238.19,-167.874 229.065,-141.958 222.743,-122.789"/>
<ellipse fill="none" stroke="#eccd72" cx="289.425" cy="-269.69" rx="4.00002" ry="4.00002"/>
<polygon fill="#eccd72" stroke="#eccd72" points="222.708,-122.679 223.899,-111.778 221.163,-117.924 219.619,-113.168 219.619,-113.168 219.619,-113.168 221.163,-117.924 215.339,-114.559 222.708,-122.679 222.708,-122.679"/>
</g>
<!-- User -->
<g id="node6" class="node"><title>User</title>
<ellipse fill="none" stroke="black" cx="291" cy="-171" rx="33.9411" ry="18.3848"/>
<text text-anchor="middle" x="291" y="-167.4" font-family="Times Roman,serif" font-size="14.00">User</text>
</g>
<!-- Item&#45;&gt;User -->
<g id="edge6" class="edge"><title>Item&#45;&gt;User</title>
<path fill="none" stroke="#bcbbc4" d="M299.389,-262.513C297.655,-243.599 295.386,-218.852 293.646,-199.861"/>
<polygon fill="#bcbbc4" stroke="#bcbbc4" points="299.392,-262.555 295.824,-272.924 299.849,-267.534 300.305,-272.513 300.305,-272.513 300.305,-272.513 299.849,-267.534 304.787,-272.102 299.392,-262.555 299.392,-262.555"/>
<polygon fill="#bcbbc4" stroke="#bcbbc4" points="293.628,-199.664 297.196,-189.295 293.171,-194.685 292.715,-189.706 292.715,-189.706 292.715,-189.706 293.171,-194.685 288.233,-190.117 293.628,-199.664 293.628,-199.664"/>
</g>
<!-- LineItem -->
<g id="node7" class="node"><title>LineItem</title>
<ellipse fill="none" stroke="black" cx="361" cy="-19" rx="53.9477" ry="18.3848"/>
<text text-anchor="middle" x="361" y="-15.4" font-family="Times Roman,serif" font-size="14.00">LineItem</text>
</g>
<!-- Item&#45;&gt;LineItem -->
<g id="edge2" class="edge"><title>Item&#45;&gt;LineItem</title>
<path fill="none" stroke="#76ba30" d="M322.232,-267.778C331.461,-256.001 341.71,-241.032 348,-226 373.961,-163.956 372.107,-143.131 368,-76 367.436,-66.773 366.362,-56.7527 365.222,-47.7241"/>
<ellipse fill="none" stroke="#76ba30" cx="319.465" cy="-271.207" rx="4.00002" ry="4.00002"/>
<polygon fill="#76ba30" stroke="#76ba30" points="365.205,-47.5995 368.339,-37.0911 364.542,-42.6436 363.879,-37.6877 363.879,-37.6877 363.879,-37.6877 364.542,-42.6436 359.419,-38.2843 365.205,-47.5995 365.205,-47.5995"/>
</g>
<!-- Wishlist -->
<g id="node4" class="node"><title>Wishlist</title>
<ellipse fill="none" stroke="black" cx="309" cy="-95" rx="50.2046" ry="18.3848"/>
<text text-anchor="middle" x="309" y="-91.4" font-family="Times Roman,serif" font-size="14.00">Wishlist</text>
</g>
<!-- Wishlist&#45;&gt;LineItem -->
<g id="edge8" class="edge"><title>Wishlist&#45;&gt;LineItem</title>
<path fill="none" stroke="#18162f" d="M325.977,-70.1871C331.389,-62.2779 337.396,-53.4986 342.885,-45.4762"/>
<ellipse fill="none" stroke="#18162f" cx="323.582" cy="-73.6878" rx="4.00002" ry="4.00002"/>
<polygon fill="#18162f" stroke="#18162f" points="342.938,-45.3981 352.299,-39.6861 345.762,-41.2716 348.585,-37.145 348.585,-37.145 348.585,-37.145 345.762,-41.2716 344.871,-34.6039 342.938,-45.3981 342.938,-45.3981"/>
</g>
<!-- Ability -->
<g id="node5" class="node"><title>Ability</title>
<polygon fill="none" stroke="black" points="414,-309 354,-309 354,-273 414,-273 414,-309"/>
<text text-anchor="middle" x="384" y="-287.4" font-family="Times Roman,serif" font-size="14.00">Ability</text>
</g>
<!-- User&#45;&gt;Bid -->
<g id="edge14" class="edge"><title>User&#45;&gt;Bid</title>
<path fill="none" stroke="#70d3bf" d="M268.418,-148.711C258.483,-138.905 246.831,-127.404 236.863,-117.566"/>
<ellipse fill="none" stroke="#70d3bf" cx="271.445" cy="-151.699" rx="4.00002" ry="4.00002"/>
<polygon fill="#70d3bf" stroke="#70d3bf" points="236.743,-117.447 232.787,-107.22 233.184,-113.935 229.626,-110.423 229.626,-110.423 229.626,-110.423 233.184,-113.935 226.464,-113.625 236.743,-117.447 236.743,-117.447"/>
</g>
<!-- User&#45;&gt;Item -->
<g id="edge12" class="edge"><title>User&#45;&gt;Item</title>
<path fill="none" stroke="#6f3ffe" d="M294.846,-197.992C295.267,-201.358 295.664,-204.756 296,-208 297.851,-225.864 299.319,-245.951 300.34,-261.888"/>
<ellipse fill="none" stroke="#6f3ffe" cx="294.291" cy="-193.762" rx="4.00001" ry="4.00001"/>
<polygon fill="#6f3ffe" stroke="#6f3ffe" points="300.359,-262.2 296.483,-272.458 300.666,-267.191 300.974,-272.181 300.974,-272.181 300.974,-272.181 300.666,-267.191 305.466,-271.904 300.359,-262.2 300.359,-262.2"/>
<text text-anchor="middle" x="321" y="-213.4" font-family="Times Roman,serif" font-size="14.00">xitems</text>
</g>
<!-- User&#45;&gt;Wishlist -->
<g id="edge10" class="edge"><title>User&#45;&gt;Wishlist</title>
<path fill="none" stroke="#541adb" d="M297.23,-144.694C298.866,-137.786 300.638,-130.307 302.298,-123.299"/>
<ellipse fill="none" stroke="#541adb" cx="296.279" cy="-148.71" rx="4.00001" ry="4.00001"/>
<polygon fill="#541adb" stroke="#541adb" points="302.316,-123.222 308.999,-114.529 303.468,-118.357 304.62,-113.491 304.62,-113.491 304.62,-113.491 303.468,-118.357 300.242,-112.454 302.316,-123.222 302.316,-123.222"/>
</g>
</g>
</svg>
