<?xml version="1.0" encoding="UTF-8" standalone="no"?>
<!DOCTYPE svg PUBLIC "-//W3C//DTD SVG 1.1//EN"
 "http://www.w3.org/Graphics/SVG/1.1/DTD/svg11.dtd">
<!-- Generated by graphviz version 2.26.3 (20100126.1600)
 -->
<!-- Title: models_diagram Pages: 1 -->
<svg width="563pt" height="930pt"
 viewBox="0.00 0.00 563.00 930.00" xmlns="http://www.w3.org/2000/svg" xmlns:xlink="http://www.w3.org/1999/xlink">
<g id="graph1" class="graph" transform="scale(1 1) rotate(0) translate(4 926)">
<title>models_diagram</title>
<polygon fill="white" stroke="white" points="-4,5 -4,-926 560,-926 560,5 -4,5"/>
<!-- _diagram_info -->
<g id="node1" class="node"><title>_diagram_info</title>
<text text-anchor="start" x="8" y="-844.8" font-family="Times Roman,serif" font-size="13.00">Models diagram</text>
<text text-anchor="start" x="8" y="-827.8" font-family="Times Roman,serif" font-size="13.00">Date: Dec 02 2012 &#45; 21:25</text>
<text text-anchor="start" x="8" y="-810.8" font-family="Times Roman,serif" font-size="13.00">Migration version: 20121128063935</text>
<text text-anchor="start" x="8" y="-793.8" font-family="Times Roman,serif" font-size="13.00">Generated by RailRoady 1.1.0</text>
<text text-anchor="start" x="8" y="-776.8" font-family="Times Roman,serif" font-size="13.00">http://railroady.prestonlee.com</text>
</g>
<!-- Bid -->
<g id="node2" class="node"><title>Bid</title>
<polyline fill="none" stroke="black" points="132.5,-165 273.5,-165 "/>
<path fill="none" stroke="black" d="M273.5,-165C279.5,-165 285.5,-171 285.5,-177"/>
<polyline fill="none" stroke="black" points="285.5,-177 285.5,-313 "/>
<path fill="none" stroke="black" d="M285.5,-313C285.5,-319 279.5,-325 273.5,-325"/>
<polyline fill="none" stroke="black" points="273.5,-325 132.5,-325 "/>
<path fill="none" stroke="black" d="M132.5,-325C126.5,-325 120.5,-319 120.5,-313"/>
<polyline fill="none" stroke="black" points="120.5,-313 120.5,-177 "/>
<path fill="none" stroke="black" d="M120.5,-177C120.5,-171 126.5,-165 132.5,-165"/>
<text text-anchor="middle" x="203" y="-308.4" font-family="Times Roman,serif" font-size="14.00">Bid</text>
<polyline fill="none" stroke="black" points="120.5,-299 285.5,-299 "/>
<text text-anchor="start" x="128.5" y="-282.4" font-family="Times Roman,serif" font-size="14.00">id :integer</text>
<text text-anchor="start" x="128.5" y="-264.4" font-family="Times Roman,serif" font-size="14.00">item_id :integer</text>
<text text-anchor="start" x="128.5" y="-246.4" font-family="Times Roman,serif" font-size="14.00">user_id :integer</text>
<text text-anchor="start" x="128.5" y="-228.4" font-family="Times Roman,serif" font-size="14.00">amount :float</text>
<text text-anchor="start" x="128.5" y="-210.4" font-family="Times Roman,serif" font-size="14.00">created_at :datetime</text>
<text text-anchor="start" x="128.5" y="-192.4" font-family="Times Roman,serif" font-size="14.00">updated_at :datetime</text>
<text text-anchor="start" x="128.5" y="-174.4" font-family="Times Roman,serif" font-size="14.00">tracked :boolean</text>
</g>
<!-- Item -->
<g id="node3" class="node"><title>Item</title>
<polyline fill="none" stroke="black" points="280,-707 428,-707 "/>
<path fill="none" stroke="black" d="M428,-707C434,-707 440,-713 440,-719"/>
<polyline fill="none" stroke="black" points="440,-719 440,-909 "/>
<path fill="none" stroke="black" d="M440,-909C440,-915 434,-921 428,-921"/>
<polyline fill="none" stroke="black" points="428,-921 280,-921 "/>
<path fill="none" stroke="black" d="M280,-921C274,-921 268,-915 268,-909"/>
<polyline fill="none" stroke="black" points="268,-909 268,-719 "/>
<path fill="none" stroke="black" d="M268,-719C268,-713 274,-707 280,-707"/>
<text text-anchor="middle" x="354" y="-904.4" font-family="Times Roman,serif" font-size="14.00">Item</text>
<polyline fill="none" stroke="black" points="268,-895 440,-895 "/>
<text text-anchor="start" x="276" y="-878.4" font-family="Times Roman,serif" font-size="14.00">id :integer</text>
<text text-anchor="start" x="276" y="-860.4" font-family="Times Roman,serif" font-size="14.00">name :string</text>
<text text-anchor="start" x="276" y="-842.4" font-family="Times Roman,serif" font-size="14.00">picture :string</text>
<text text-anchor="start" x="276" y="-824.4" font-family="Times Roman,serif" font-size="14.00">description :text</text>
<text text-anchor="start" x="276" y="-806.4" font-family="Times Roman,serif" font-size="14.00">opening_bid :float</text>
<text text-anchor="start" x="276" y="-788.4" font-family="Times Roman,serif" font-size="14.00">created_at :datetime</text>
<text text-anchor="start" x="276" y="-770.4" font-family="Times Roman,serif" font-size="14.00">updated_at :datetime</text>
<text text-anchor="start" x="276" y="-752.4" font-family="Times Roman,serif" font-size="14.00">user_id :integer</text>
<text text-anchor="start" x="276" y="-734.4" font-family="Times Roman,serif" font-size="14.00">closing_date :datetime</text>
<text text-anchor="start" x="276" y="-716.4" font-family="Times Roman,serif" font-size="14.00">category :string</text>
</g>
<!-- Item&#45;&gt;Bid -->
<g id="edge4" class="edge"><title>Item&#45;&gt;Bid</title>
<path fill="none" stroke="#ea6a96" d="M262.682,-708.643C238.512,-680.248 218.601,-656.151 217,-652 177.264,-548.997 180.795,-420.221 189.594,-335.438"/>
<ellipse fill="none" stroke="#ea6a96" cx="265.304" cy="-711.718" rx="4.00002" ry="4.00002"/>
<polygon fill="#ea6a96" stroke="#ea6a96" points="189.612,-335.263 195.164,-325.807 190.151,-330.292 190.69,-325.322 190.69,-325.322 190.69,-325.322 190.151,-330.292 186.216,-324.837 189.612,-335.263 189.612,-335.263"/>
</g>
<!-- User -->
<g id="node6" class="node"><title>User</title>
<polyline fill="none" stroke="black" points="238,-365 468,-365 "/>
<path fill="none" stroke="black" d="M468,-365C474,-365 480,-371 480,-377"/>
<polyline fill="none" stroke="black" points="480,-377 480,-639 "/>
<path fill="none" stroke="black" d="M480,-639C480,-645 474,-651 468,-651"/>
<polyline fill="none" stroke="black" points="468,-651 238,-651 "/>
<path fill="none" stroke="black" d="M238,-651C232,-651 226,-645 226,-639"/>
<polyline fill="none" stroke="black" points="226,-639 226,-377 "/>
<path fill="none" stroke="black" d="M226,-377C226,-371 232,-365 238,-365"/>
<text text-anchor="middle" x="353" y="-634.4" font-family="Times Roman,serif" font-size="14.00">User</text>
<polyline fill="none" stroke="black" points="226,-625 480,-625 "/>
<text text-anchor="start" x="234" y="-608.4" font-family="Times Roman,serif" font-size="14.00">id :integer</text>
<text text-anchor="start" x="234" y="-590.4" font-family="Times Roman,serif" font-size="14.00">email :string</text>
<text text-anchor="start" x="234" y="-572.4" font-family="Times Roman,serif" font-size="14.00">encrypted_password :string</text>
<text text-anchor="start" x="234" y="-554.4" font-family="Times Roman,serif" font-size="14.00">reset_password_token :string</text>
<text text-anchor="start" x="234" y="-536.4" font-family="Times Roman,serif" font-size="14.00">reset_password_sent_at :datetime</text>
<text text-anchor="start" x="234" y="-518.4" font-family="Times Roman,serif" font-size="14.00">remember_created_at :datetime</text>
<text text-anchor="start" x="234" y="-500.4" font-family="Times Roman,serif" font-size="14.00">sign_in_count :integer</text>
<text text-anchor="start" x="234" y="-482.4" font-family="Times Roman,serif" font-size="14.00">current_sign_in_at :datetime</text>
<text text-anchor="start" x="234" y="-464.4" font-family="Times Roman,serif" font-size="14.00">last_sign_in_at :datetime</text>
<text text-anchor="start" x="234" y="-446.4" font-family="Times Roman,serif" font-size="14.00">current_sign_in_ip :string</text>
<text text-anchor="start" x="234" y="-428.4" font-family="Times Roman,serif" font-size="14.00">last_sign_in_ip :string</text>
<text text-anchor="start" x="234" y="-410.4" font-family="Times Roman,serif" font-size="14.00">created_at :datetime</text>
<text text-anchor="start" x="234" y="-392.4" font-family="Times Roman,serif" font-size="14.00">updated_at :datetime</text>
<text text-anchor="start" x="234" y="-374.4" font-family="Times Roman,serif" font-size="14.00">admin :boolean</text>
</g>
<!-- Item&#45;&gt;User -->
<g id="edge6" class="edge"><title>Item&#45;&gt;User</title>
<path fill="none" stroke="#de81f1" d="M351.115,-696.714C351.073,-693.78 351.034,-690.872 351,-688 350.897,-679.372 350.84,-670.512 350.82,-661.569"/>
<polygon fill="#de81f1" stroke="#de81f1" points="351.116,-696.772 346.774,-706.841 351.195,-701.771 351.273,-706.771 351.273,-706.771 351.273,-706.771 351.195,-701.771 355.773,-706.7 351.116,-696.772 351.116,-696.772"/>
<polygon fill="#de81f1" stroke="#de81f1" points="350.82,-661.446 355.312,-651.442 350.816,-656.446 350.812,-651.446 350.812,-651.446 350.812,-651.446 350.816,-656.446 346.312,-651.449 350.82,-661.446 350.82,-661.446"/>
</g>
<!-- LineItem -->
<g id="node7" class="node"><title>LineItem</title>
<polyline fill="none" stroke="black" points="402.5,-1 543.5,-1 "/>
<path fill="none" stroke="black" d="M543.5,-1C549.5,-1 555.5,-7 555.5,-13"/>
<polyline fill="none" stroke="black" points="555.5,-13 555.5,-113 "/>
<path fill="none" stroke="black" d="M555.5,-113C555.5,-119 549.5,-125 543.5,-125"/>
<polyline fill="none" stroke="black" points="543.5,-125 402.5,-125 "/>
<path fill="none" stroke="black" d="M402.5,-125C396.5,-125 390.5,-119 390.5,-113"/>
<polyline fill="none" stroke="black" points="390.5,-113 390.5,-13 "/>
<path fill="none" stroke="black" d="M390.5,-13C390.5,-7 396.5,-1 402.5,-1"/>
<text text-anchor="middle" x="473" y="-108.4" font-family="Times Roman,serif" font-size="14.00">LineItem</text>
<polyline fill="none" stroke="black" points="390.5,-99 555.5,-99 "/>
<text text-anchor="start" x="398.5" y="-82.4" font-family="Times Roman,serif" font-size="14.00">id :integer</text>
<text text-anchor="start" x="398.5" y="-64.4" font-family="Times Roman,serif" font-size="14.00">item_id :integer</text>
<text text-anchor="start" x="398.5" y="-46.4" font-family="Times Roman,serif" font-size="14.00">wishlist_id :integer</text>
<text text-anchor="start" x="398.5" y="-28.4" font-family="Times Roman,serif" font-size="14.00">created_at :datetime</text>
<text text-anchor="start" x="398.5" y="-10.4" font-family="Times Roman,serif" font-size="14.00">updated_at :datetime</text>
</g>
<!-- Item&#45;&gt;LineItem -->
<g id="edge2" class="edge"><title>Item&#45;&gt;LineItem</title>
<path fill="none" stroke="#fb9e46" d="M445.613,-709.576C467.846,-683.125 486.13,-659.927 489,-652 552.973,-475.303 516.893,-248.896 491.413,-135.113"/>
<ellipse fill="none" stroke="#fb9e46" cx="442.776" cy="-712.938" rx="4.00002" ry="4.00002"/>
<polygon fill="#fb9e46" stroke="#fb9e46" points="491.358,-134.873 493.525,-124.124 490.248,-129.998 489.138,-125.123 489.138,-125.123 489.138,-125.123 490.248,-129.998 484.75,-126.122 491.358,-134.873 491.358,-134.873"/>
</g>
<!-- Wishlist -->
<g id="node4" class="node"><title>Wishlist</title>
<polyline fill="none" stroke="black" points="323.5,-183 464.5,-183 "/>
<path fill="none" stroke="black" d="M464.5,-183C470.5,-183 476.5,-189 476.5,-195"/>
<polyline fill="none" stroke="black" points="476.5,-195 476.5,-295 "/>
<path fill="none" stroke="black" d="M476.5,-295C476.5,-301 470.5,-307 464.5,-307"/>
<polyline fill="none" stroke="black" points="464.5,-307 323.5,-307 "/>
<path fill="none" stroke="black" d="M323.5,-307C317.5,-307 311.5,-301 311.5,-295"/>
<polyline fill="none" stroke="black" points="311.5,-295 311.5,-195 "/>
<path fill="none" stroke="black" d="M311.5,-195C311.5,-189 317.5,-183 323.5,-183"/>
<text text-anchor="middle" x="394" y="-290.4" font-family="Times Roman,serif" font-size="14.00">Wishlist</text>
<polyline fill="none" stroke="black" points="311.5,-281 476.5,-281 "/>
<text text-anchor="start" x="319.5" y="-264.4" font-family="Times Roman,serif" font-size="14.00">id :integer</text>
<text text-anchor="start" x="319.5" y="-246.4" font-family="Times Roman,serif" font-size="14.00">user_id :integer</text>
<text text-anchor="start" x="319.5" y="-228.4" font-family="Times Roman,serif" font-size="14.00">created_at :datetime</text>
<text text-anchor="start" x="319.5" y="-210.4" font-family="Times Roman,serif" font-size="14.00">updated_at :datetime</text>
<text text-anchor="start" x="319.5" y="-192.4" font-family="Times Roman,serif" font-size="14.00">name :string</text>
</g>
<!-- Wishlist&#45;&gt;LineItem -->
<g id="edge8" class="edge"><title>Wishlist&#45;&gt;LineItem</title>
<path fill="none" stroke="#cae9aa" d="M424.228,-175.362C430.055,-161.936 436.168,-147.854 442.019,-134.374"/>
<ellipse fill="none" stroke="#cae9aa" cx="422.559" cy="-179.206" rx="4.00002" ry="4.00002"/>
<polygon fill="#cae9aa" stroke="#cae9aa" points="442.039,-134.327 450.149,-126.946 444.03,-129.74 446.021,-125.154 446.021,-125.154 446.021,-125.154 444.03,-129.74 441.893,-123.362 442.039,-134.327 442.039,-134.327"/>
</g>
<!-- Ability -->
<g id="node5" class="node"><title>Ability</title>
<polygon fill="none" stroke="black" points="458,-788 458,-840 518,-840 518,-788 458,-788"/>
<text text-anchor="middle" x="488" y="-823.4" font-family="Times Roman,serif" font-size="14.00">Ability</text>
<polyline fill="none" stroke="black" points="458,-814 518,-814 "/>
<text text-anchor="middle" x="488" y="-797.4" font-family="Times Roman,serif" font-size="14.00"> </text>
</g>
<!-- User&#45;&gt;Bid -->
<g id="edge14" class="edge"><title>User&#45;&gt;Bid</title>
<path fill="none" stroke="#dc58d3" d="M267.422,-357.954C262.776,-349.807 258.185,-341.758 253.722,-333.933"/>
<ellipse fill="none" stroke="#dc58d3" cx="269.434" cy="-361.481" rx="4.00002" ry="4.00002"/>
<polygon fill="#dc58d3" stroke="#dc58d3" points="253.697,-333.889 252.652,-322.973 251.22,-329.545 248.743,-325.202 248.743,-325.202 248.743,-325.202 251.22,-329.545 244.834,-327.432 253.697,-333.889 253.697,-333.889"/>
</g>
<!-- User&#45;&gt;Item -->
<g id="edge12" class="edge"><title>User&#45;&gt;Item</title>
<path fill="none" stroke="#4986d8" d="M353.495,-659.489C353.536,-672.009 353.577,-684.542 353.617,-696.754"/>
<ellipse fill="none" stroke="#4986d8" cx="353.481" cy="-655.267" rx="4" ry="4"/>
<polygon fill="#4986d8" stroke="#4986d8" points="353.617,-696.976 349.15,-706.991 353.634,-701.976 353.65,-706.976 353.65,-706.976 353.65,-706.976 353.634,-701.976 358.15,-706.961 353.617,-696.976 353.617,-696.976"/>
<text text-anchor="middle" x="377" y="-675.4" font-family="Times Roman,serif" font-size="14.00">xitems</text>
</g>
<!-- User&#45;&gt;Wishlist -->
<g id="edge10" class="edge"><title>User&#45;&gt;Wishlist</title>
<path fill="none" stroke="#3ae46d" d="M376.553,-356.915C378.677,-343.292 380.756,-329.955 382.696,-317.508"/>
<ellipse fill="none" stroke="#3ae46d" cx="375.916" cy="-361.003" rx="4.00001" ry="4.00001"/>
<polygon fill="#3ae46d" stroke="#3ae46d" points="382.751,-317.156 388.738,-307.968 383.521,-312.216 384.292,-307.275 384.292,-307.275 384.292,-307.275 383.521,-312.216 379.845,-306.582 382.751,-317.156 382.751,-317.156"/>
</g>
</g>
</svg>
